With: Michele Placido, Gaetano Amato and Francesco Benigno

Sicilië in de jaren '90. Maffiabaas Salvatore 'Toto' Riina is gearresteerd. Iedereen in Italië vraagt zich af wie de nieuwe leider van de maffia zal worden. Het antwoord doet de Italiaanse justitie op haar grondvesten schudden. Bernardo Provenzano is namelijk sinds 1963 niet meer in het openbaar gezien. Na dertig jaar is Provenzano uit de schaduw gestapt om de macht te grijpen. Maar de maffia die hij erft is ernstig verzwakt. De nieuwe peetvader werkt dan ook aan een strenge regie om de Cosa Nostra langzaam weer op te bouwen. Ondertussen probeert een task force Provenzano te traceren. Wat volgt is een klopjacht op de maffiabaas die net zo ongrijpbaar en onzichtbaar is als een geest...

Sicily in the 90s. Mafia boss Salvatore "Toto" Riina was arrested. Everyone in Italy wonders who the new leader of the mafia will be...

General:

Complete name                    : The Last Godfather\L'ultimo Padrino Part01.avi
Format                           : AVI
Format/Info                      : Audio Video Interleave
File size                        : 1.18 GiB
Duration                         : 1h 32mn
Overall bit rate                 : 1 821 Kbps

Video:

Format                           : MPEG-4 Visual
Format profile                   : Simple@L3
Format settings, BVOP            : No
Format settings, QPel            : No
Format settings, GMC             : No warppoints
Format settings, Matrix          : Default (H.263)
Codec ID                         : XVID
Codec ID/Hint                    : XviD
Duration                         : 1h 32mn
Bit rate                         : 1 587 Kbps
Width                            : 652 pixels
Height                           : 352 pixels
Display aspect ratio             : 1.852
Frame rate                       : 25.000 fps
Color space                      : YUV
Chroma subsampling               : 4:2:0
Bit depth                        : 8 bits
Scan type                        : Progressive
Bits/(Pixel*Frame)               : 0.277
Stream size                      : 1.02 GiB (87%)
Writing library                  : XviD 1.1.2 (UTC 2006-11-01)

Audio:

Format                           : AC-3
Format/Info                      : Audio Coding 3
Mode extension                   : CM (complete main)
Codec ID                         : 2000
Duration                         : 1h 32mn
Bit rate mode                    : Constant
Bit rate                         : 224 Kbps
Channel(s)                       : 2 channels
Channel positions                : Front: L R
Sampling rate                    : 48.0 KHz
Bit depth                        : 16 bits
Stream size                      : 148 MiB (12%)
Alignment                        : Aligned on interleaves
Interleave, duration             : 32 ms (0.80 video frame)



